<?xml version="1.0" standalone="no"?>
<!DOCTYPE svg PUBLIC "-//W3C//DTD SVG 20010904//EN"
 "http://www.w3.org/TR/2001/REC-SVG-20010904/DTD/svg10.dtd">
<svg version="1.0" xmlns="http://www.w3.org/2000/svg"
 width="256.000000pt" height="256.000000pt" viewBox="0 0 256.000000 256.000000"
 preserveAspectRatio="xMidYMid meet">
<metadata>
Created by potrace 1.11, written by Peter Selinger 2001-2013
</metadata>
<g transform="translate(0.000000,256.000000) scale(0.100000,-0.100000)"
fill="#000000" stroke="none">
<path d="M0 1280 l0 -1280 1280 0 1280 0 0 1280 0 1280 -1280 0 -1280 0 0
-1280z m736 626 c32 -15 75 -43 95 -62 l36 -35 7 39 c3 22 12 45 20 51 46 38
145 31 183 -13 21 -24 21 -33 19 -205 -3 -145 -6 -185 -19 -205 -33 -49 -140
-59 -196 -18 -16 11 -34 41 -46 78 -29 84 -40 101 -88 126 -51 26 -172 31
-225 9 -61 -26 -84 -120 -39 -165 22 -22 47 -30 255 -80 190 -46 309 -122 364
-233 20 -42 23 -63 23 -163 0 -109 -2 -119 -32 -183 -37 -78 -104 -148 -182
-191 -159 -86 -378 -74 -530 30 -42 28 -51 30 -51 9 0 -51 -70 -92 -138 -80
-85 14 -91 31 -89 270 l1 200 26 27 c45 44 124 59 185 34 43 -18 61 -46 78
-122 8 -33 22 -73 32 -87 28 -43 94 -68 178 -69 121 -1 187 47 187 137 0 81
-38 106 -250 160 -80 20 -168 47 -197 60 -70 32 -147 105 -180 174 -25 50 -28
67 -27 151 1 131 26 194 109 275 44 43 78 67 123 84 116 45 265 44 368 -3z
m1345 4 c117 -39 197 -100 269 -202 150 -214 159 -595 20 -841 -33 -60 -127
-155 -178 -181 -36 -19 -39 -33 -16 -82 25 -53 57 -47 89 16 21 41 32 51 65
61 135 41 202 -151 94 -270 -56 -63 -121 -86 -239 -85 -166 0 -244 50 -285
180 -11 36 -20 72 -20 80 0 11 -16 14 -63 14 -76 0 -196 29 -264 63 -148 76
-253 244 -284 457 -14 102 -7 303 15 385 52 194 185 348 352 406 117 41 322
40 445 -1z"/>
<path d="M1845 1675 c-5 -2 -27 -6 -48 -10 -49 -8 -114 -66 -138 -122 -28 -66
-40 -152 -40 -291 1 -182 24 -274 83 -329 27 -26 98 -57 98 -44 0 5 -16 30
-36 56 -63 83 -67 125 -17 177 89 93 239 43 281 -94 l19 -60 22 51 c35 81 44
154 38 296 -9 183 -34 265 -99 320 -17 15 -41 30 -52 35 -27 9 -98 19 -111 15z"/>
</g>
</svg>
